<svg xmlns="http://www.w3.org/2000/svg" xmlns:xlink="http://www.w3.org/1999/xlink" x="0" y="0" width="662" height="220.00001525878906" style="
        width:662px;
        height:220.00001525878906px;
        background: transparent;
        fill: none;
">
        
        
        <svg xmlns="http://www.w3.org/2000/svg" class="role-diagram-draw-area"><g class="shapes-region" style="stroke: black; fill: none;"><g class="composite-shape"><path class="real" d=" M15,115.36 C15,77.05 46.05,46 84.36,46 C122.66,46 153.71,77.05 153.71,115.36 C153.71,153.66 122.66,184.71 84.36,184.71 C46.05,184.71 15,153.66 15,115.36 Z" style="stroke-width: 1; stroke: rgb(128, 128, 128); fill: none; fill-opacity: 1; stroke-opacity: 1;"/></g><g class="arrow-line"><path class="connection real" stroke-dasharray="" d="  M84.36,115.36 L270.71,115.36" style="stroke: rgb(0, 0, 0); stroke-width: 1; fill: none; fill-opacity: 1;"/><g stroke="none" transform="matrix(-1,1.2246467991473532e-16,-1.2246467991473532e-16,-1,273.7142333984375,115.35711669921875)" style="stroke: none; stroke-width: 1; fill: rgb(0, 0, 0);" fill="#000"><path d=" M8.93,-4.29 L0,0 L8.93,4.29 Z"/></g></g><g class="arrow-line"><path class="connection real" stroke-dasharray="" d="  M124,58" style="stroke: rgb(0, 0, 0); stroke-width: 1; fill: none; fill-opacity: 1;"/><g stroke="#000" fill="#000" transform="matrix(1,0,0,1,124,58.000000000000014)" style="stroke: rgb(0, 0, 0); fill: rgb(0, 0, 0); stroke-width: 1;"><circle cx="0" cy="0" r="3.35"/></g><g stroke="#000" fill="#000" transform="matrix(1,0,0,1,124,58.000000000000014)" style="stroke: rgb(0, 0, 0); fill: rgb(0, 0, 0); stroke-width: 1;"><circle cx="0" cy="0" r="3.35"/></g></g><g class="composite-shape"><path class="real" d=" M157.68,84.21 C171.58,89.41 184.47,97.92 195.11,109.68 C217.3,134.22 224.44,167.1 217.09,196.99 L124,174 Z" style="stroke-width: 2; stroke: none; fill: none; fill-opacity: 1; stroke-dasharray: 2.25, 3.685; stroke-opacity: 1;"/><path class="real" d=" M157.68,84.21 C171.58,89.41 184.47,97.92 195.11,109.68 C217.3,134.22 224.44,167.1 217.09,196.99" style="stroke-width: 2; stroke: rgb(0, 0, 255); fill: none; fill-opacity: 1; stroke-dasharray: 2.25, 3.685; stroke-opacity: 1;"/></g><g class="composite-shape"><path class="real" d=" M216.8,32.88 C223.34,58.09 219.65,85.87 204.29,109.4 C193.97,125.22 179.77,136.98 163.77,144.26 L124,57 Z" style="stroke-width: 2; stroke: none; stroke-opacity: 1; fill: none; fill-opacity: 1; stroke-dasharray: 2.25, 3.685;"/><path class="real" d=" M216.8,32.88 C223.34,58.09 219.65,85.87 204.29,109.4 C193.97,125.22 179.77,136.98 163.77,144.26" style="stroke-width: 2; stroke: rgb(255, 0, 0); stroke-opacity: 1; fill: none; fill-opacity: 1; stroke-dasharray: 2.25, 3.685;"/></g><g class="arrow-line"><path class="connection real" stroke-dasharray="" d="  M124,172" style="stroke: rgb(0, 0, 0); stroke-width: 1; fill: none; fill-opacity: 1;"/><g stroke="#000" fill="#000" transform="matrix(1,0,0,1,124,172)" style="stroke: rgb(0, 0, 0); fill: rgb(0, 0, 0); stroke-width: 1;"><circle cx="0" cy="0" r="3.35"/></g><g stroke="#000" fill="#000" transform="matrix(1,0,0,1,124,172)" style="stroke: rgb(0, 0, 0); fill: rgb(0, 0, 0); stroke-width: 1;"><circle cx="0" cy="0" r="3.35"/></g></g><g class="arrow-line"><path class="connection real" stroke-dasharray="" d="  M200,115 L165.34,76.49" style="stroke: rgb(0, 0, 255); stroke-width: 1; fill: none; fill-opacity: 1; stroke-opacity: 1;"/><g stroke="rgb(0,0,255)" transform="matrix(0.669000892927838,0.7432615994801262,-0.7432615994801262,0.669000892927838,164,75)" style="stroke: rgb(0, 0, 255); stroke-width: 1;" stroke-opacity="1"><path d=" M10.93,-3.29 Q4.96,-0.45 0,0 Q4.96,0.45 10.93,3.29"/></g></g><g class="arrow-line"><path class="connection real" stroke-dasharray="" d="  M200,115 L232.7,76.52" style="stroke: rgb(255, 0, 0); stroke-opacity: 1; stroke-width: 1; fill: none; fill-opacity: 1;"/><g stroke="rgb(255,0,0)" stroke-opacity="1" transform="matrix(-0.6475880891295717,0.7619905949665717,-0.7619905949665717,-0.6475880891295717,234,75)" style="stroke: rgb(255, 0, 0); stroke-width: 1;"><path d=" M10.93,-3.29 Q4.96,-0.45 0,0 Q4.96,0.45 10.93,3.29"/></g></g><g class="arrow-line"><path class="connection real" stroke-dasharray="" d="  M200,115 L200,36.43" style="stroke: rgb(0, 0, 0); stroke-opacity: 1; stroke-width: 1; fill: none; fill-opacity: 1;"/><g stroke="rgb(0,0,0)" stroke-opacity="1" transform="matrix(3.061616997868383e-16,1,-1,3.061616997868383e-16,200,34.428558349609375)" style="stroke: rgb(0, 0, 0); stroke-width: 1;"><path d=" M10.93,-3.29 Q4.96,-0.45 0,0 Q4.96,0.45 10.93,3.29"/></g></g><g/></g><g/><g/><g/></svg>
        <svg xmlns="http://www.w3.org/2000/svg" xmlns:xlink="http://www.w3.org/1999/xlink" width="660" height="218.00001525878906" style="width:660px;height:218.00001525878906px;font-family:Asana-Math, Asana;background:transparent;"><g><g><g><text x="131" y="172.28570556640625" style="white-space:pre;stroke:none;fill:rgb(0,0,0);fill-opacity:1;font-size:15px;font-family:&quot;Times New Roman&quot;, Times, serif;font-weight:400;font-style:normal;dominant-baseline:text-before-edge;text-decoration:none solid rgb(0, 0, 0);">L</text></g></g></g><g><g><g><text x="130" y="41.28570556640625" style="white-space:pre;stroke:none;fill:rgb(0,0,0);fill-opacity:1;font-size:15px;font-family:&quot;Times New Roman&quot;, Times, serif;font-weight:400;font-style:normal;dominant-baseline:text-before-edge;text-decoration:none solid rgb(0, 0, 0);">U</text></g></g></g><g><g><g><g transform="matrix(1,0,0,1,276.705322265625,132.77679443359375)"><path transform="matrix(0.017,0,0,-0.017,0,0)" d="M31 148C26 97 20 62 9 16C47 -2 81 -11 116 -11C165 -11 211 7 262 47C313 87 334 124 334 174C334 228 302 257 228 271L185 279C125 290 106 307 106 348C106 401 151 442 208 442C249 442 287 424 303 397L303 342L326 342C330 377 334 404 345 455C306 474 278 482 245 482C193 482 132 452 84 404C58 377 47 352 47 316C47 260 78 228 144 215L207 203C251 195 267 177 267 138C267 73 221 29 150 29C115 29 84 40 56 64L56 148Z" stroke="rgb(0,0,0)" stroke-opacity="1" stroke-width="8" fill="rgb(0,0,0)" fill-opacity="1"></path></g></g></g></g><g><g><g><g transform="matrix(1,0,0,1,236,68.42857360839844)"><path transform="matrix(0.017,0,0,-0.017,0,0)" d="M543 227C543 337 459 353 377 365C434 385 459 397 490 425C536 464 559 511 559 562C559 644 501 692 401 692C399 692 389 692 374 691L311 690C299 689 263 689 251 689C232 689 201 690 152 691L100 692L97 664L150 662C174 661 185 653 185 635C185 621 181 589 176 559L89 55C85 37 73 30 31 23L26 -3L63 -2C90 0 105 0 117 0C128 0 154 -1 180 -2L217 -3L237 -4C256 -5 269 -6 277 -6C392 -6 543 87 543 227ZM166 41L217 340L302 340C405 340 455 298 455 211C455 108 382 34 282 34C228 34 207 38 166 41ZM352 655C433 655 473 619 473 544C473 439 399 376 275 376L223 376L272 650C288 650 329 655 352 655Z" stroke="rgb(255,0,0)" stroke-opacity="1" stroke-width="8" fill="rgb(255,0,0)" fill-opacity="1"></path></g></g><g><g><g><g><g transform="matrix(1,0,0,1,246.8839111328125,72.00714721679688)"><path transform="matrix(0.0119,0,0,-0.0119,0,0)" d="M795 664L798 692L782 692L691 689C676 689 655 689 611 690L548 692L545 664L593 662C617 661 628 653 628 634C628 629 628 626 627 622L556 177C508 119 478 93 427 68C389 48 352 39 314 39C229 39 175 84 175 154C175 171 177 187 182 215L270 692L239 691C212 690 192 689 181 689C171 689 151 690 123 691L91 692L88 664L140 662C166 661 174 656 174 639C174 630 171 602 167 581L103 206C99 185 97 160 97 144C97 43 164 -19 276 -19C320 -19 361 -9 409 15C468 44 500 69 552 129C544 83 538 57 525 2L530 -3L552 -3L614 0C618 0 640 -1 672 -2L704 -3L709 25L649 29C626 31 617 37 617 50C617 65 618 70 623 106L708 613C714 651 721 657 759 661Z" stroke="rgb(255,0,0)" stroke-opacity="1" stroke-width="8" fill="rgb(255,0,0)" fill-opacity="1"></path></g></g></g></g></g></g></g><g><g><g><g transform="matrix(1,0,0,1,148,68.42857360839844)"><path transform="matrix(0.017,0,0,-0.017,0,0)" d="M543 227C543 337 459 353 377 365C434 385 459 397 490 425C536 464 559 511 559 562C559 644 501 692 401 692C399 692 389 692 374 691L311 690C299 689 263 689 251 689C232 689 201 690 152 691L100 692L97 664L150 662C174 661 185 653 185 635C185 621 181 589 176 559L89 55C85 37 73 30 31 23L26 -3L63 -2C90 0 105 0 117 0C128 0 154 -1 180 -2L217 -3L237 -4C256 -5 269 -6 277 -6C392 -6 543 87 543 227ZM166 41L217 340L302 340C405 340 455 298 455 211C455 108 382 34 282 34C228 34 207 38 166 41ZM352 655C433 655 473 619 473 544C473 439 399 376 275 376L223 376L272 650C288 650 329 655 352 655Z" stroke="rgb(0,0,255)" stroke-opacity="1" stroke-width="8" fill="rgb(0,0,255)" fill-opacity="1"></path></g></g><g><g><g><g><g transform="matrix(1,0,0,1,158.8839111328125,72.00714721679688)"><path transform="matrix(0.0119,0,0,-0.0119,0,0)" d="M349 664L352 692L238 689C222 689 204 689 161 690L97 692L94 664L141 662C165 661 176 653 176 635L81 55C77 37 65 30 21 23L16 -3L57 -2C88 -1 150 0 170 0C170 0 467 -1 467 -1C467 -1 500 0 500 0C499 25 510 103 523 165L492 165L475 103C466 71 457 54 448 49C435 44 371 39 304 39C255 39 228 40 162 46C165 64 256 605 256 613C263 651 270 658 307 661Z" stroke="rgb(0,0,255)" stroke-opacity="1" stroke-width="8" fill="rgb(0,0,255)" fill-opacity="1"></path></g></g></g></g></g></g></g><g><g><g><g transform="matrix(1,0,0,1,173,26.428573608398438)"><path transform="matrix(0.017,0,0,-0.017,0,0)" d="M543 227C543 337 459 353 377 365C434 385 459 397 490 425C536 464 559 511 559 562C559 644 501 692 401 692C399 692 389 692 374 691L311 690C299 689 263 689 251 689C232 689 201 690 152 691L100 692L97 664L150 662C174 661 185 653 185 635C185 621 181 589 176 559L89 55C85 37 73 30 31 23L26 -3L63 -2C90 0 105 0 117 0C128 0 154 -1 180 -2L217 -3L237 -4C256 -5 269 -6 277 -6C392 -6 543 87 543 227ZM166 41L217 340L302 340C405 340 455 298 455 211C455 108 382 34 282 34C228 34 207 38 166 41ZM352 655C433 655 473 619 473 544C473 439 399 376 275 376L223 376L272 650C288 650 329 655 352 655Z" stroke="rgb(0,0,0)" stroke-opacity="1" stroke-width="8" fill="rgb(0,0,0)" fill-opacity="1"></path></g></g><g><g><g><g><g transform="matrix(1,0,0,1,183.8839111328125,30.00713195800781)"><path transform="matrix(0.0119,0,0,-0.0119,0,0)" d="M349 664L352 692L238 689C222 689 204 689 161 690L97 692L94 664L141 662C165 661 176 653 176 635L81 55C77 37 65 30 21 23L16 -3L57 -2C88 -1 150 0 170 0C170 0 467 -1 467 -1C467 -1 500 0 500 0C499 25 510 103 523 165L492 165L475 103C466 71 457 54 448 49C435 44 371 39 304 39C255 39 228 40 162 46C165 64 256 605 256 613C263 651 270 658 307 661Z" stroke="rgb(0,0,0)" stroke-opacity="1" stroke-width="8" fill="rgb(0,0,0)" fill-opacity="1"></path></g></g></g></g></g><g><g transform="matrix(1,0,0,1,194.90179443359375,26.428573608398438)"><path transform="matrix(0.017,0,0,-0.017,0,0)" d="M604 241L604 300L364 300L364 538L305 538L305 300L65 300L65 241L305 241L305 0L364 0L364 241Z" stroke="rgb(0,0,0)" stroke-opacity="1" stroke-width="8" fill="rgb(0,0,0)" fill-opacity="1"></path></g></g><g><g transform="matrix(1,0,0,1,209.65179443359375,26.428573608398438)"><path transform="matrix(0.017,0,0,-0.017,0,0)" d="M543 227C543 337 459 353 377 365C434 385 459 397 490 425C536 464 559 511 559 562C559 644 501 692 401 692C399 692 389 692 374 691L311 690C299 689 263 689 251 689C232 689 201 690 152 691L100 692L97 664L150 662C174 661 185 653 185 635C185 621 181 589 176 559L89 55C85 37 73 30 31 23L26 -3L63 -2C90 0 105 0 117 0C128 0 154 -1 180 -2L217 -3L237 -4C256 -5 269 -6 277 -6C392 -6 543 87 543 227ZM166 41L217 340L302 340C405 340 455 298 455 211C455 108 382 34 282 34C228 34 207 38 166 41ZM352 655C433 655 473 619 473 544C473 439 399 376 275 376L223 376L272 650C288 650 329 655 352 655Z" stroke="rgb(0,0,0)" stroke-opacity="1" stroke-width="8" fill="rgb(0,0,0)" fill-opacity="1"></path></g></g><g><g><g><g><g transform="matrix(1,0,0,1,220.53570556640625,30.00713195800781)"><path transform="matrix(0.0119,0,0,-0.0119,0,0)" d="M795 664L798 692L782 692L691 689C676 689 655 689 611 690L548 692L545 664L593 662C617 661 628 653 628 634C628 629 628 626 627 622L556 177C508 119 478 93 427 68C389 48 352 39 314 39C229 39 175 84 175 154C175 171 177 187 182 215L270 692L239 691C212 690 192 689 181 689C171 689 151 690 123 691L91 692L88 664L140 662C166 661 174 656 174 639C174 630 171 602 167 581L103 206C99 185 97 160 97 144C97 43 164 -19 276 -19C320 -19 361 -9 409 15C468 44 500 69 552 129C544 83 538 57 525 2L530 -3L552 -3L614 0C618 0 640 -1 672 -2L704 -3L709 25L649 29C626 31 617 37 617 50C617 65 618 70 623 106L708 613C714 651 721 657 759 661Z" stroke="rgb(0,0,0)" stroke-opacity="1" stroke-width="8" fill="rgb(0,0,0)" fill-opacity="1"></path></g></g></g></g></g></g></g></svg>
</svg>
