<svg xmlns="http://www.w3.org/2000/svg" xmlns:xlink="http://www.w3.org/1999/xlink" x="0" y="0" width="662" height="174.00001525878906" style="
        width:662px;
        height:174.00001525878906px;
        background: transparent;
        fill: none;
">
        
        
        <svg xmlns="http://www.w3.org/2000/svg" class="role-diagram-draw-area"><g class="shapes-region" style="stroke: black; fill: none;"><g class="arrow-line"><path class="connection real" stroke-dasharray="" d="  M85,85 L98.07,71.77" style="stroke: rgb(0, 0, 0); stroke-width: 1; fill: none; fill-opacity: 1;"/><g stroke="none" fill="#000" transform="matrix(-0.7028982997921764,0.711290362755793,-0.711290362755793,-0.7028982997921764,100.17888189913049,69.63802156198787)" style="stroke: none; fill: rgb(0, 0, 0); stroke-width: 1;"><path d=" M5.36,-2.57 L0,0 L5.36,2.57 Z"/></g></g><g class="arrow-line"><path class="connection real" stroke-dasharray="" d="  M85,85 L103.03,47.42" style="stroke: rgb(0, 0, 0); stroke-width: 1; fill: none; fill-opacity: 1;"/><g stroke="none" fill="#000" transform="matrix(-0.43271524132965933,0.9015306538998076,-0.9015306538998076,-0.43271524132965933,104.33272805297663,44.714944638910964)" style="stroke: none; fill: rgb(0, 0, 0); stroke-width: 1;"><path d=" M5.36,-2.57 L0,0 L5.36,2.57 Z"/></g></g><g class="composite-shape"><defs><!-- react-text: 22135 --> <!-- /react-text --><pattern id="_pgfflj66u2xk" x="0" y="0" width="31.254119728445406" height="31.254119728445406" patternTransform="rotate(45,0,0)" patternUnits="userSpaceOnUse"><path d="M0,0 L0,31.254119728445406" style="stroke: rgb(0, 0, 0); stroke-opacity: 1; stroke-width: 1; fill: none;"/><path d="M15.627059864222703,0 L15.627059864222703,31.254119728445406" style="stroke: rgb(0, 0, 0); stroke-opacity: 1; stroke-width: 1; fill: none;"/><path d="M31.254119728445406,0 L31.254119728445406,31.254119728445406" style="stroke: rgb(0, 0, 0); stroke-opacity: 1; stroke-width: 1; fill: none;"/></pattern></defs><path class="real" d=" M63.93,85 C63.93,73.37 73.37,63.93 85,63.93 C96.63,63.93 106.07,73.37 106.07,85 C106.07,96.63 96.63,106.07 85,106.07 C73.37,106.07 63.93,96.63 63.93,85 M40,85 C40,60.15 60.15,40 85,40 C109.85,40 130,60.15 130,85 C130,109.85 109.85,130 85,130 C60.15,130 40,109.85 40,85" style="stroke-width: 1; stroke: rgb(0, 0, 0); fill: url(&quot;#_pgfflj66u2xk&quot;); fill-opacity: 1; fill-rule: evenodd;"/></g><g class="composite-shape"><path class="real" d=" M7.5,85 C7.5,42.2 42.2,7.5 85,7.5 C127.8,7.5 162.5,42.2 162.5,85 C162.5,127.8 127.8,162.5 85,162.5 C42.2,162.5 7.5,127.8 7.5,85 Z" style="stroke-width: 1; stroke: rgb(255, 0, 0); fill: none; fill-opacity: 1; stroke-opacity: 1;"/></g><g class="arrow-line"><path class="connection real" stroke-dasharray="" d="  M85,85 L32.12,32.12" style="stroke: rgb(0, 0, 0); stroke-width: 1; fill: none; fill-opacity: 1;"/><g stroke="none" fill="#000" transform="matrix(0.7071067811865483,0.7071067811865467,-0.7071067811865467,0.7071067811865483,30,30)" style="stroke: none; fill: rgb(0, 0, 0); stroke-width: 1;"><path d=" M5.36,-2.57 L0,0 L5.36,2.57 Z"/></g></g><g class="composite-shape"><path class="real" d=" M63.75,85.18 C63.75,73.45 73.26,63.93 85,63.93 C96.74,63.93 106.25,73.45 106.25,85.18 C106.25,96.92 96.74,106.43 85,106.43 C73.26,106.43 63.75,96.92 63.75,85.18 Z" style="stroke-width: 1; stroke: rgb(255, 0, 0); stroke-opacity: 1; fill: none; fill-opacity: 1;"/></g><g/></g><g/><g/><g/></svg>
        <svg xmlns="http://www.w3.org/2000/svg" xmlns:xlink="http://www.w3.org/1999/xlink" width="660" height="172.00001525878906" style="width:660px;height:172.00001525878906px;font-family:Asana-Math, Asana;background:transparent;"><g><g><g><g transform="matrix(1,0,0,1,90,89.9)"><path transform="matrix(0.0119,0,0,-0.0119,0,0)" d="M235 722L223 733C171 707 135 698 63 691L59 670L107 670C131 670 141 663 141 646C141 639 140 628 139 622L38 71C37 68 37 64 37 61C37 22 85 -11 140 -11C177 -11 228 8 271 39C367 107 433 244 433 376C433 414 424 453 412 468C405 477 392 482 377 482C353 482 323 474 295 460C244 433 211 403 149 324ZM322 424C348 424 361 401 361 352C361 288 340 202 310 137C277 68 237 36 183 36C137 36 112 59 112 101C112 135 127 276 208 361C241 395 293 424 322 424Z" stroke="rgb(0,0,0)" stroke-opacity="1" stroke-width="8" fill="rgb(0,0,0)" fill-opacity="1"></path></g></g></g></g><g><g><g><g transform="matrix(1,0,0,1,89.69195556640625,57.502691650390624)"><path transform="matrix(0.0119,0,0,-0.0119,0,0)" d="M342 330L365 330C373 395 380 432 389 458C365 473 330 482 293 482C248 483 175 463 118 400C64 352 25 241 25 136C25 40 67 -11 147 -11C201 -11 249 9 304 54L354 95L346 115L331 105C259 57 221 40 186 40C130 40 101 80 101 159C101 267 136 371 185 409C206 425 230 433 261 433C306 433 342 414 342 390Z" stroke="rgb(0,0,0)" stroke-opacity="1" stroke-width="8" fill="rgb(0,0,0)" fill-opacity="1"></path></g></g></g></g><g><g><g><g transform="matrix(1,0,0,1,111,94.31429443359374)"><path transform="matrix(0.0136,0,0,-0.0136,0,0)" d="M314 216C363 260 522 416 601 434L601 444C587 458 568 469 548 479C469 402 386 320 310 239C295 410 294 473 232 473C186 473 144 434 114 405L114 391L128 391L128 392C237 502 248 262 259 183C161 83 69 -32 -1 -152C7 -167 18 -182 32 -193L43 -193C102 -72 182 42 262 151C280 -26 285 -172 371 -172C418 -172 461 -136 495 -107L495 -96L484 -96C327 -207 332 124 314 216Z" stroke="rgb(0,0,0)" stroke-opacity="1" stroke-width="8" fill="rgb(0,0,0)" fill-opacity="1"></path></g></g><g><g><g><g><g transform="matrix(1,0,0,1,119.6785888671875,97.002177734375)"><path transform="matrix(0.009519999999999999,0,0,-0.009519999999999999,0,0)" d="M328 111L304 94C251 56 203 36 167 36C120 36 91 73 91 133C91 158 94 185 99 214C116 218 225 248 250 259C335 296 374 342 374 404C374 451 340 482 290 482C222 496 112 423 75 349C45 299 15 180 15 113C15 35 59 -11 131 -11C188 -11 244 17 336 92ZM113 274C130 343 150 386 179 412C197 428 228 440 252 440C281 440 300 420 300 388C300 344 265 297 213 272C185 258 149 247 104 237Z" stroke="rgb(0,0,0)" stroke-opacity="1" stroke-width="8" fill="rgb(0,0,0)" fill-opacity="1"></path></g></g></g></g></g></g></g><g><g><g><g transform="matrix(1,0,0,1,41,37.9)"><path transform="matrix(0.0119,0,0,-0.0119,0,0)" d="M16 23L16 -3C203 -3 203 0 239 0C275 0 275 -3 468 -3L468 82C353 77 307 81 122 77L304 270C401 373 431 428 431 503C431 618 353 689 226 689C154 689 105 669 56 619L39 483L68 483L81 529C97 587 133 612 200 612C286 612 341 558 341 473C341 398 299 324 186 204ZM841 330L864 330C872 395 879 432 888 458C864 473 829 482 792 482C747 483 674 463 617 400C563 352 524 241 524 136C524 40 566 -11 646 -11C700 -11 748 9 803 54L853 95L845 115L830 105C758 57 720 40 685 40C629 40 600 80 600 159C600 267 635 371 684 409C705 425 729 433 760 433C805 433 841 414 841 390Z" stroke="rgb(0,0,0)" stroke-opacity="1" stroke-width="8" fill="rgb(0,0,0)" fill-opacity="1"></path></g></g></g></g></svg>
</svg>
