<svg xmlns="http://www.w3.org/2000/svg" xmlns:xlink="http://www.w3.org/1999/xlink" x="0" y="0" width="150" height="301" style="
        width:150px;
        height:301px;
        background: transparent;
        fill: none;
">
        
        
        <svg xmlns="http://www.w3.org/2000/svg" class="role-diagram-draw-area"><g class="shapes-region" style="stroke: black; fill: none;"><g class="composite-shape"><path class="real" d=" M100.98,41.77 L100.98,236.89 C100.98,245.53 80.51,252.54 55.25,252.54 C30,252.54 9.52,245.53 9.52,236.89 L9.52,41.77 C9.52,33.12 30,26.11 55.25,26.11 C80.51,26.11 100.98,33.12 100.98,41.77 C100.98,50.42 80.51,57.43 55.25,57.43 C30,57.43 9.52,50.42 9.52,41.77" style="stroke-width: 1; stroke: rgb(0, 0, 0); fill: rgb(255, 255, 255); fill-opacity: 1;"/></g><g class="arrow-line"><path class="connection real" stroke-dasharray="" d="  M54.25,40.28 L54.25,7.2" style="stroke: rgb(0, 0, 0); stroke-width: 1; fill: none; fill-opacity: 1;"/><g stroke="none" fill="#000" transform="matrix(3.061616997868383e-16,1,-1,3.061616997868383e-16,54.25445556640625,4.200000762939453)" style="stroke: none; fill: rgb(0, 0, 0); stroke-width: 1;"><path d=" M8.93,-4.29 L0,0 L8.93,4.29 Z"/></g></g><g class="arrow-line"><path class="connection real" stroke-dasharray="6 6" d="  M54.25,139.43 L54.25,50.55" style="stroke: rgb(0, 0, 0); stroke-width: 1; fill: none; fill-opacity: 1;"/></g><g class="arrow-line"><path class="connection real" stroke-dasharray="6 6" d="  M54.25,139.43 L88.71,139.43" style="stroke: rgb(0, 0, 0); stroke-width: 1; fill: none; fill-opacity: 1;"/></g><g class="arrow-line"><path class="connection real" stroke-dasharray="" d="  M88.71,139.43 L120.71,139.43" style="stroke: rgb(0, 0, 0); stroke-width: 1; fill: none; fill-opacity: 1;"/><g stroke="none" fill="#000" transform="matrix(-1,1.2246467991473532e-16,-1.2246467991473532e-16,-1,123.71423339843749,139.4285583496094)" style="stroke: none; fill: rgb(0, 0, 0); stroke-width: 1;"><path d=" M8.93,-4.29 L0,0 L8.93,4.29 Z"/></g></g><g class="composite-shape"><defs><!-- react-text: 31142 --> <!-- /react-text --><pattern id="_pgfbr89395t9" x="0" y="0" width="11.313708498984761" height="11.313708498984761" patternTransform="rotate(45,0,0)" patternUnits="userSpaceOnUse"><path d="M0,0 L0,11.313708498984761" style="stroke: rgb(0, 0, 0); stroke-opacity: 1; stroke-width: 1; fill: none;"/><path d="M5.656854249492381,0 L5.656854249492381,11.313708498984761" style="stroke: rgb(0, 0, 0); stroke-opacity: 1; stroke-width: 1; fill: none;"/><path d="M11.313708498984761,0 L11.313708498984761,11.313708498984761" style="stroke: rgb(0, 0, 0); stroke-opacity: 1; stroke-width: 1; fill: none;"/><path d="M0,0 L11.313708498984761,0" style="stroke: rgb(0, 0, 0); stroke-opacity: 1; stroke-width: 1; fill: none;"/><path d="M0,5.656854249492381 L11.313708498984761,5.656854249492381" style="stroke: rgb(0, 0, 0); stroke-opacity: 1; stroke-width: 1; fill: none;"/><path d="M0,11.313708498984761 L11.313708498984761,11.313708498984761" style="stroke: rgb(0, 0, 0); stroke-opacity: 1; stroke-width: 1; fill: none;"/></pattern></defs><path class="real" d=" M9.52,41.77 C9.52,33.12 30,26.11 55.25,26.11 C80.51,26.11 100.98,33.12 100.98,41.77 C100.98,50.42 80.51,57.43 55.25,57.43 C30,57.43 9.52,50.42 9.52,41.77 Z" style="stroke-width: 1; stroke: rgb(0, 0, 0); fill: url(&quot;#_pgfbr89395t9&quot;); fill-opacity: 1;"/></g><g class="composite-shape"><path class="real" d=" M20,41.84 C20,37.58 35.34,34.12 54.25,34.12 C73.17,34.12 88.51,37.58 88.51,41.84 C88.51,46.1 73.17,49.55 54.25,49.55 C35.34,49.55 20,46.1 20,41.84 Z" style="stroke-width: 1; stroke: rgb(0, 0, 0); fill: rgb(255, 255, 255); fill-opacity: 1;"/></g><g class="arrow-line"><path class="connection real" stroke-dasharray="" d="  M54.25,22.24 L54.25,47.84" style="stroke: rgb(0, 0, 255); stroke-width: 3; fill: none; fill-opacity: 1; stroke-opacity: 1;"/></g><g class="arrow-line"><path class="connection real" stroke-dasharray="" d="  M55.25,252.54 L55.25,265.34" style="stroke: rgb(0, 0, 255); stroke-opacity: 1; stroke-width: 3; fill: none; fill-opacity: 1;"/></g><g class="arrow-line"><path class="connection real" stroke-dasharray="" d="  M55.16,265.34 L54.71,284.14" style="stroke: rgb(0, 0, 255); stroke-opacity: 1; stroke-width: 2; fill: none; fill-opacity: 1;"/><g stroke="none" fill="rgb(0,0,255)" fill-opacity="1" transform="matrix(-0.023734248954022014,0.9997183030367047,-0.9997183030367047,-0.023734248954022014,55.25445556640625,261.343411064148)" style="stroke: none; fill: rgb(0, 0, 255); stroke-width: 2;"><path d=" M11.61,-5.58 L0,0 L11.61,5.58 Z"/></g></g><g/></g><g/><g/><g/></svg>
        <svg xmlns="http://www.w3.org/2000/svg" xmlns:xlink="http://www.w3.org/1999/xlink" width="660" height="299" style="width:660px;height:299px;font-family:Asana-Math, Asana;background:transparent;"><g><g><g><g transform="matrix(1,0,0,1,64,6.5339111328125)"><path transform="matrix(0.0119,0,0,-0.0119,0,0)" d="M322 -11C334 -11 343 -9 372 -1C383 61 391 95 402 142L380 142L358 82C352 64 340 57 319 57C307 57 291 59 270 64L252 68C219 75 185 80 166 80C134 80 107 74 71 59L410 441L416 473L407 482L384 459C374 449 364 445 350 445C316 445 264 453 216 466L198 471C170 478 150 482 136 482C119 482 99 479 75 472L43 350L64 350L94 408C111 412 120 413 133 413C174 413 206 398 259 398C295 398 319 404 352 421L-1 21L8 -6C37 17 64 26 99 26C162 26 253 -11 322 -11Z" stroke="rgb(0,0,0)" stroke-opacity="1" stroke-width="8" fill="rgb(0,0,0)" fill-opacity="1"></path></g></g></g></g><g><g><g><g transform="matrix(1,0,0,1,126.705322265625,151.74820556640626)"><path transform="matrix(0.0119,0,0,-0.0119,0,0)" d="M31 148C26 97 20 62 9 16C47 -2 81 -11 116 -11C165 -11 211 7 262 47C313 87 334 124 334 174C334 228 302 257 228 271L185 279C125 290 106 307 106 348C106 401 151 442 208 442C249 442 287 424 303 397L303 342L326 342C330 377 334 404 345 455C306 474 278 482 245 482C193 482 132 452 84 404C58 377 47 352 47 316C47 260 78 228 144 215L207 203C251 195 267 177 267 138C267 73 221 29 150 29C115 29 84 40 56 64L56 148Z" stroke="rgb(0,0,0)" stroke-opacity="1" stroke-width="8" fill="rgb(0,0,0)" fill-opacity="1"></path></g></g></g></g><g><g><g><g transform="matrix(1,0,0,1,69,274.4285583496094)"><path transform="matrix(0.017,0,0,-0.017,0,0)" d="M103 664L150 662C174 661 185 653 185 636C185 629 179 576 176 559L104 125C89 36 86 31 46 28L10 25L7 -3L39 -3L133 0L227 -3L259 -3L262 25L210 28C184 30 174 37 174 57C174 63 175 74 176 78L265 613C272 652 277 657 316 661L351 664L354 692L248 689C231 689 213 689 170 690L106 692Z" stroke="rgb(0,0,255)" stroke-opacity="1" stroke-width="8" fill="rgb(0,0,255)" fill-opacity="1"></path></g></g><g><g><g><g><g transform="matrix(1,0,0,1,75.16070556640625,278.00714721679685)"><path transform="matrix(0.0119,0,0,-0.0119,0,0)" d="M17 152C17 46 62 -11 145 -11C200 -11 260 15 305 57C367 116 411 230 411 331C411 425 361 482 278 482C174 482 17 382 17 152ZM241 444C302 444 335 399 335 315C335 219 304 113 260 60C242 39 216 27 185 27C127 27 93 72 93 151C93 264 132 387 181 427C194 438 217 444 241 444Z" stroke="rgb(0,0,255)" stroke-opacity="1" stroke-width="8" fill="rgb(0,0,255)" fill-opacity="1"></path></g></g></g></g></g></g></g></svg>
</svg>
